# xmcd
#
# Track frame offsets:
#	150
#	14840
#	30367
#	44117
#	57787
#	70072
#	80442
#	94397
#	112685
#	127777
#	139910
#	155450
#
# Disc length: 2258 seconds
#
# Revision: 2
# Processed by: cddbd v1.5.1PL0 Copyright (c) Steve Scherf et al.
# Submitted via: audiograbber 1.83.01
#
DISCID=9a08d00c
DTITLE=Les Serpents Noirs - Souvenirs 60
DYEAR=1900
DGENRE=Vocal
TTITLE0=Les anges noirs
TTITLE1=Mon seul amour
TTITLE2=Elle à tout juste 17 ans
TTITLE3=Si je pouvais la  retrouver
TTITLE4=Je ne peux t'oublier
TTITLE5=Amoureux d'une fille
TTITLE6=Chaque fois
TTITLE7=Sourire à l'amour
TTITLE8=Pourquoi
TTITLE9=Voyage
TTITLE10=L'horizon
TTITLE11=Mirage
EXTD=
EXTT0=
EXTT1=
EXTT2=
EXTT3=
EXTT4=
EXTT5=
EXTT6=
EXTT7=
EXTT8=
EXTT9=
EXTT10=
EXTT11=
PLAYORDER=
